<?xml version="1.0" encoding="utf-8"?>
<!-- Generator: Adobe Illustrator 24.0.2, SVG Export Plug-In . SVG Version: 6.00 Build 0)  -->
<svg version="1.1" id="a829b389-c410-4f7b-96e4-605d098a680d"
	 xmlns="http://www.w3.org/2000/svg" xmlns:xlink="http://www.w3.org/1999/xlink" x="0px" y="0px" viewBox="0 0 907 671.95"
	 style="enable-background:new 0 0 907 671.95;" xml:space="preserve">
<style type="text/css">
	.st0{fill:#E52E2E;}
	.st1{fill:#C14C29;}
	.st2{opacity:0.1;enable-background:new    ;}
	.st3{fill:#514242;}
	.st4{fill:#EF8652;}
</style>
<title>Building</title>
<circle class="st0" cx="698.89" cy="78.11" r="78.11"/>
<rect x="133.5" y="131.95" class="st1" width="641" height="503"/>
<rect x="133.5" y="131.95" class="st2" width="641" height="503"/>
<rect y="200.95" class="st3" width="907" height="437"/>
<rect x="189" y="79.95" class="st4" width="530" height="592"/>
<rect x="37" y="259.95" class="st4" width="112" height="72"/>
<rect x="37" y="381.95" class="st4" width="112" height="72"/>
<rect x="37" y="503.95" class="st4" width="112" height="72"/>
<rect x="257" y="137.95" class="st3" width="112" height="72"/>
<rect x="257" y="259.95" class="st3" width="112" height="72"/>
<rect x="257" y="381.95" class="st3" width="112" height="72"/>
<rect x="539" y="137.95" class="st3" width="112" height="72"/>
<rect x="539" y="259.95" class="st3" width="112" height="72"/>
<rect x="539" y="381.95" class="st3" width="112" height="72"/>
<rect x="750" y="259.95" class="st4" width="112" height="72"/>
<rect x="750" y="381.95" class="st4" width="112" height="72"/>
<rect x="750" y="503.95" class="st4" width="112" height="72"/>
<rect x="405" y="479.95" class="st3" width="98" height="192"/>
<rect x="257" y="137.95" class="st2" width="112" height="22"/>
<rect x="539" y="137.95" class="st2" width="112" height="22"/>
<rect x="539" y="259.95" class="st2" width="112" height="22"/>
<rect x="539" y="381.95" class="st2" width="112" height="22"/>
<rect x="257" y="259.95" class="st2" width="112" height="22"/>
<rect x="257" y="381.95" class="st2" width="112" height="22"/>
<rect x="37" y="259.95" class="st2" width="112" height="17"/>
<rect x="37" y="381.95" class="st2" width="112" height="17"/>
<rect x="37" y="503.95" class="st2" width="112" height="17"/>
<rect x="750" y="259.95" class="st2" width="112" height="17"/>
<rect x="750" y="381.95" class="st2" width="112" height="17"/>
<rect x="750" y="503.95" class="st2" width="112" height="17"/>
</svg>
