<?xml version="1.0" encoding="utf-8"?>
<!-- Generator: Adobe Illustrator 24.0.2, SVG Export Plug-In . SVG Version: 6.00 Build 0)  -->
<svg version="1.1" xmlns="http://www.w3.org/2000/svg" xmlns:xlink="http://www.w3.org/1999/xlink" x="0px" y="0px"
	 viewBox="0 0 152.27 138.48" style="enable-background:new 0 0 152.27 138.48;" xml:space="preserve">
<style type="text/css">
	.st0{fill:#FFFFFF;stroke:#000000;stroke-width:4;stroke-linecap:round;stroke-miterlimit:10;}
	.st1{fill:none;stroke:#000000;stroke-width:4;stroke-linecap:round;stroke-miterlimit:10;}
	.st2{fill:#FFFFFF;}
	.st3{fill:none;stroke:#000000;stroke-width:1.3892;stroke-miterlimit:10;}
	.st4{fill:none;stroke:#000000;stroke-width:4;stroke-miterlimit:10;}
</style>
<g id="Layer_1">
</g>
<g id="Layer_2">
	<g>
		<path class="st0" d="M82.13,89.52c-3.5-6.42-7-5.35-9.31-3.34c-1.65,1.43-2.67,3.45-3.09,5.59c-2.51,12.79-7.55,16.77-11.42,17.83
			c-2.65,0.72-5.34-1.08-5.88-3.78c-4.9-24.59-12.91-39.84-17.59-47.13c-3.42-5.34-4.88-11.77-3.74-18.01
			c2.26-12.32,12.06-12.89,19.66-11.32c4.29,0.89,8.25,2.89,11.76,5.51c3.09,2.31,9.81,5.77,23.6,7.65"/>
		<path class="st1" d="M70.13,89.52c3.5-6.42,7-5.35,9.31-3.34c1.65,1.43,2.67,3.45,3.09,5.59c2.51,12.79,7.55,16.77,11.42,17.83
			c2.65,0.72,5.34-1.08,5.88-3.78c4.9-24.59,12.91-39.84,17.59-47.13c3.42-5.34,4.88-11.77,3.74-18.01
			c-3.81-20.76-29.02-8.16-29.02-8.16s-5,2-9,2"/>
	</g>
</g>
</svg>
